PathFileType	4	(X/Y/Z)	 s04c0403.trc
DataRate	CameraRate	NumFrames	NumMarkers	Units	OrigDataRate	OrigDataStartFrame	OrigNumFrames
200	200	5	50	mm	200	1751	2000
Frame#	Time	racr			lacr			c7			jug			rlel			rdr			llel			ldr			s2			lic			ric			lasi			rasi			rpsi			lpsi			rgt			lgt			rth1			rth2			rth3			rth4			rlfc			rmfc			rsh1			rsh2			rsh3			rsh4			rlmal			rmmal			rcal			rtoe			rmt5			lth1			lth2			lth4			lth3			llfc			lmfc			lsh1			lsh2			lsh3			lsh4			llmal			lmmal			lcal			ltoe			lmt5			SBIKE			LBIKE			RBIKE			
		X1	Y1	Z1	X2	Y2	Z2	X3	Y3	Z3	X4	Y4	Z4	X5	Y5	Z5	X6	Y6	Z6	X7	Y7	Z7	X8	Y8	Z8	X9	Y9	Z9	X10	Y10	Z10	X11	Y11	Z11	X12	Y12	Z12	X13	Y13	Z13	X14	Y14	Z14	X15	Y15	Z15	X16	Y16	Z16	X17	Y17	Z17	X18	Y18	Z18	X19	Y19	Z19	X20	Y20	Z20	X21	Y21	Z21	X22	Y22	Z22	X23	Y23	Z23	X24	Y24	Z24	X25	Y25	Z25	X26	Y26	Z26	X27	Y27	Z27	X28	Y28	Z28	X29	Y29	Z29	X30	Y30	Z30	X31	Y31	Z31	X32	Y32	Z32	X33	Y33	Z33	X34	Y34	Z34	X35	Y35	Z35	X36	Y36	Z36	X37	Y37	Z37	X38	Y38	Z38	X39	Y39	Z39	X40	Y40	Z40	X41	Y41	Z41	X42	Y42	Z42	X43	Y43	Z43	X44	Y44	Z44	X45	Y45	Z45	X46	Y46	Z46	X47	Y47	Z47	X48	Y48	Z48	X49	Y49	Z49	X50	Y50	Z50	
1751	8.7550	861.474658	1271.613741	-125.093769	888.039077	1195.189183	-448.134283	916.917899	1310.827948	-298.532508	838.330333	1179.956059	-280.146557	608.473084	1175.460632	61.402110	708.580583	940.848147	-42.117002	613.405172	1155.206005	-579.436514	702.471751	942.746598	-469.597509	307.678883	1287.622826	-248.389547	432.727037	1269.553916	-420.586603	474.291217	1225.444478	-105.492821	464.831288	1210.224521	-387.812089	485.263972	1169.283521	-153.103389	357.393320	1312.283121	-205.888878	348.080890	1328.113438	-278.769341	397.283219	1179.198075	-87.688163	395.066558	1198.695096	-451.612626	400.414521	1017.302035	-63.920231	412.420387	930.295200	-73.806098	383.043195	850.019447	-78.051232	445.193160	928.732176	-92.213907	367.254029	704.227671	-107.827398	342.614743	692.888218	-220.976757	288.342315	608.073885	-82.641528	258.477500	523.416166	-99.015524	191.242376	469.840941	-106.739811	287.225065	508.372927	-120.500669	116.104971	335.978933	-113.433934	141.388192	332.965891	-196.466210	52.975074	355.630592	-150.653582	258.746116	132.621777	-157.812646	195.483393	160.440357	-100.399760	445.189695	1123.920004	-454.085584	520.300585	1080.228539	-452.556488	544.891083	1104.587415	-440.456444	564.942270	1003.419485	-454.632660	655.361954	874.636656	-431.471739	671.731832	844.167249	-316.048777	582.030879	790.099091	-454.754225	529.207476	722.000609	-438.710964	447.494274	685.970744	-440.492583	547.051734	702.378619	-410.292074	327.432974	596.782810	-438.722650	NaN	NaN	NaN	244.524874	625.468157	-402.854184	474.697697	429.228181	-391.798402	401.326192	444.688255	-459.481278	-176.509988	934.446062	-279.575412	-3.168709	85.867817	-484.546353	-15.002687	80.636058	-84.114319	
1752	8.7600	859.963150	1272.206473	-125.118573	886.722760	1192.902641	-447.835754	917.023180	1310.559651	-299.774083	837.148547	1180.497389	-281.178595	607.119589	1175.538072	60.628040	708.111738	940.941354	-42.424903	611.993160	1154.729783	-577.963893	702.078035	942.938419	-469.589634	307.931391	1289.425696	-250.441959	433.301052	1268.664964	-421.551489	473.596308	1228.543131	-105.951855	464.302725	1209.205179	-388.041907	485.055671	1170.629926	-153.026462	357.967774	1314.112793	-208.756329	348.715233	1329.099695	-282.063933	397.205696	1182.153949	-87.939473	394.965506	1198.865984	-452.205601	403.025007	1019.061852	-63.722151	416.969229	932.518803	-74.085278	389.515320	851.472918	-78.263581	449.746595	931.769148	-92.566348	375.064420	705.605368	-107.020273	350.392039	694.684987	-220.095176	292.945258	611.117365	-82.136651	260.683157	527.453695	-98.877986	191.791343	475.997043	-107.123759	288.629107	511.542447	-120.969882	112.114158	344.516891	-114.672735	138.086102	340.609883	-197.589152	49.628648	365.307356	-153.340339	249.866328	137.008357	-156.312570	186.746843	167.107786	-100.123747	443.742335	1123.312444	-454.623535	518.310220	1078.830557	-452.818722	543.163789	1103.079138	-441.159069	562.024289	1001.514009	-454.429958	652.112512	871.768319	-430.837960	668.907642	841.648115	-315.708087	580.282661	785.362062	-454.434630	528.608957	716.259262	-438.467608	447.696962	678.706117	-440.265795	546.726289	696.931247	-409.918380	329.057803	588.238935	-438.831391	NaN	NaN	NaN	245.027314	613.569890	-403.121933	483.143060	427.076339	-392.054416	409.016587	439.311367	-459.555284	-176.470827	934.460841	-279.716391	-3.159395	85.889931	-484.554859	-14.981820	80.682839	-84.127399	
1753	8.7650	858.439738	1272.944063	-124.858978	885.483086	1190.868301	-447.532257	916.993756	1310.033429	-299.742641	835.487170	1181.010625	-280.975495	605.765297	1175.499025	60.105957	707.716686	941.027131	-42.656452	610.634136	1154.386210	-576.569414	701.856115	943.191780	-469.798969	308.112088	1291.133507	-252.653834	433.858763	1267.684705	-422.580605	472.811886	1231.675992	-106.369769	463.817477	1208.220710	-388.216724	484.822066	1172.021445	-152.952816	358.431253	1316.052534	-211.952677	348.436566	1331.575660	-283.094317	397.014719	1185.095397	-88.239262	394.824516	1198.699183	-452.754022	405.791391	1021.014762	-63.723617	421.867329	934.937408	-74.383296	396.239525	853.200289	-78.501802	454.670381	935.061009	-92.581541	383.627248	707.315807	-106.180805	358.869552	696.657306	-218.984534	298.044852	614.430915	-81.556713	264.429920	532.168602	-98.314308	192.834805	482.596288	-107.448757	290.804284	515.241807	-120.893245	108.635937	353.456215	-115.893827	135.462611	348.696367	-198.838222	46.084532	374.799050	-157.549604	241.467611	141.685008	-154.282949	178.011850	173.952143	-99.971945	442.067022	1122.056143	-454.992449	516.067994	1076.757768	-453.056643	541.172282	1100.961207	-441.842249	558.762236	998.857619	-454.194113	647.575670	867.978367	-430.881545	665.520435	838.247664	-315.476454	578.134896	779.069677	-454.722095	527.514866	709.500127	-438.170024	447.270106	670.590445	-440.034208	545.921933	690.625909	-409.339928	330.382607	579.077594	-439.079861	NaN	NaN	NaN	245.067518	600.898259	-403.010874	490.761755	424.423414	-392.182575	416.182811	433.433451	-459.725989	-176.444994	934.457214	-279.852640	-3.166553	85.869770	-484.569463	-15.008200	80.715752	-84.140112	
1754	8.7700	856.877959	1273.900119	-124.223834	884.311167	1189.219559	-447.218683	916.890597	1309.634519	-299.314937	833.720673	1181.705704	-280.343934	604.566815	1175.368740	59.781476	707.354787	941.113324	-42.724621	609.499852	1154.130874	-575.386438	702.844185	944.404292	-471.377049	308.376472	1292.753647	-255.082765	434.574149	1266.441875	-423.657314	471.794555	1234.771150	-106.914166	463.510714	1207.041325	-388.389825	484.566926	1173.440036	-152.886116	358.439410	1317.812853	-214.581680	348.301576	1332.443461	-286.229644	396.698423	1188.122586	-88.616823	394.655848	1198.075251	-453.269349	408.760825	1023.085536	-64.223636	427.052521	937.383067	-74.743470	403.655970	855.132909	-78.517923	459.717609	938.633340	-94.022178	392.820120	709.165034	-105.231071	367.840312	698.784541	-217.878631	303.485896	618.070368	-80.856159	266.270357	536.513008	-98.506986	194.346112	489.531034	-107.720422	293.403141	519.230239	-120.718219	105.408602	362.736199	-117.046635	133.638558	357.167383	-199.959174	43.882808	385.532472	-160.384731	233.347010	147.062726	-152.796563	169.708670	181.438012	-99.892508	440.277605	1120.366364	-455.288218	513.725836	1074.118672	-453.775768	539.014525	1098.141543	-442.574195	554.690140	995.290324	-454.384405	643.874283	863.288084	-429.534567	661.490999	834.050264	-315.374014	575.735567	771.603561	-455.091186	526.078419	701.725072	-437.635937	446.620170	661.318350	-439.536034	544.708751	683.523757	-408.465507	331.143861	568.635383	-438.921090	NaN	NaN	NaN	245.230490	587.265621	-402.955585	497.757797	420.936689	-392.341782	422.822819	426.965001	-459.862910	-176.420151	934.462197	-279.972341	-3.158907	85.846146	-484.576406	-14.984294	80.731271	-84.122898	
1755	8.7750	855.355360	1275.193137	-123.314662	883.261612	1187.980352	-446.846153	916.717214	1309.429635	-298.651918	831.940681	1182.607718	-279.349262	603.635178	1175.205995	59.779956	707.098369	941.165624	-42.658203	608.570524	1154.054301	-574.526822	702.585765	944.720002	-471.733174	308.650604	1294.196739	-257.355507	435.328752	1265.041296	-424.820472	470.747776	1237.620897	-107.491393	463.320965	1205.739843	-388.698863	484.294022	1174.867660	-152.830023	356.674736	1321.266027	-212.697480	348.570087	1333.899279	-288.399273	396.320356	1191.054875	-88.930414	394.383552	1197.112258	-453.873720	411.793512	1025.217985	-65.123255	432.321470	939.883399	-75.484906	411.359414	857.109151	-78.595413	465.209504	941.978927	-93.790481	402.269453	711.038289	-104.073468	377.231490	700.751657	-216.599074	309.127088	621.899224	-80.108435	269.601722	541.579023	-98.128931	196.237531	496.912790	-107.967522	296.243157	523.708739	-120.296298	103.021567	372.320431	-118.243822	132.496323	366.164733	-201.119456	42.653645	396.477832	-163.183098	225.540427	152.820828	-151.886766	162.143476	189.285825	-100.186785	438.551584	1118.264659	-455.430894	511.228794	1071.074975	-454.031123	536.992204	1094.664348	-443.288383	551.138215	991.618652	-454.279959	639.056746	858.095491	-428.608409	656.791401	829.116371	-315.670726	572.795122	763.640208	-455.084103	524.453453	693.226539	-436.890632	445.697797	651.498094	-438.798910	543.190954	675.416535	-407.226493	331.851452	557.625219	-438.651454	NaN	NaN	NaN	245.435759	573.146631	-402.680982	504.191915	416.632750	-392.588315	428.988964	419.821390	-459.919251	-176.393589	934.450848	-280.085815	-3.169756	85.824280	-484.597792	-14.986198	80.734737	-84.137939	
